Normalized EMG Linear Envelopes
nRows=283
nColumns=4

endheader
time	 med_gas_r	  soleus_r	 tib_ant_r	
2.82744	  0.049385	  0.092718	  0.038377	
2.8607	  0.049334	  0.093839	  0.038333	
2.89397	  0.049239	  0.094984	  0.038307	
2.92723	  0.049064	  0.095843	  0.038379	
2.9605	  0.048936	  0.096532	  0.038505	
2.99376	  0.048965	  0.097236	  0.038473	
3.02702	  0.049125	  0.097724	  0.038149	
3.06029	  0.049362	  0.097714	  0.037554	
3.09355	  0.049536	  0.097018	  0.036831	
3.12682	  0.049512	  0.095733	  0.036223	
3.16008	  0.049347	  0.094511	  0.035912	
3.19334	  0.049230	  0.093878	  0.036065	
3.22661	  0.049196	  0.094070	  0.036625	
3.25987	  0.049098	  0.094999	  0.037317	
3.29314	  0.048883	  0.096192	  0.037936	
3.3264	  0.048671	  0.097129	  0.038387	
3.35966	  0.048674	  0.097401	  0.038608	
3.39293	  0.049003	  0.096876	  0.038528	
3.42619	  0.049527	  0.095717	  0.038043	
3.45946	  0.050132	  0.094371	  0.037322	
3.49272	  0.050834	  0.093359	  0.036566	
3.52598	  0.051585	  0.092835	  0.035882	
3.55925	  0.052381	  0.092476	  0.035385	
3.59251	  0.053082	  0.092082	  0.035105	
3.62578	  0.053514	  0.091762	  0.035091	
3.65904	  0.053846	  0.091703	  0.035472	
3.6923	  0.054222	  0.091788	  0.036235	
3.72557	  0.054532	  0.091773	  0.037280	
3.75883	  0.054555	  0.091374	  0.038298	
3.7921	  0.054250	  0.090415	  0.038967	
3.82536	  0.053784	  0.088945	  0.039339	
3.85862	  0.053317	  0.087268	  0.039628	
3.89189	  0.052949	  0.085802	  0.039911	
3.92515	  0.052691	  0.084977	  0.040047	
3.95842	  0.052647	  0.085037	  0.039742	
3.99168	  0.052707	  0.085945	  0.038924	
4.02494	  0.052768	  0.087310	  0.037895	
4.05821	  0.052796	  0.088537	  0.036952	
4.09147	  0.052605	  0.089261	  0.036155	
4.12474	  0.052205	  0.089516	  0.035351	
4.158	  0.051803	  0.089736	  0.034532	
4.19126	  0.051391	  0.090405	  0.034003	
4.22453	  0.050968	  0.091595	  0.033914	
4.25779	  0.050500	  0.092997	  0.034070	
4.29106	  0.049983	  0.094279	  0.034261	
4.32432	  0.049413	  0.094989	  0.034399	
4.35758	  0.048761	  0.095008	  0.034458	
4.39085	  0.048199	  0.094718	  0.034481	
4.42411	  0.047907	  0.094125	  0.034367	
4.45738	  0.047777	  0.092980	  0.034040	
4.49064	  0.047601	  0.091542	  0.033437	
4.5239	  0.047387	  0.090239	  0.032692	
4.55717	  0.047200	  0.089290	  0.032077	
4.59043	  0.047117	  0.088878	  0.031873	
4.6237	  0.047366	  0.089169	  0.032309	
4.65696	  0.048153	  0.090261	  0.033553	
4.69022	  0.049687	  0.092130	  0.036065	
4.72349	  0.052131	  0.094719	  0.040940	
4.75675	  0.055601	  0.098057	  0.049594	
4.79002	  0.060049	  0.102208	  0.063308	
4.82328	  0.065372	  0.107709	  0.083160	
4.85654	  0.071205	  0.114957	  0.109566	
4.88981	  0.077192	  0.123484	  0.141933	
4.92307	  0.083846	  0.132643	  0.179879	
4.95634	  0.091493	  0.142149	  0.224232	
4.9896	  0.099813	  0.152401	  0.277224	
5.02286	  0.107998	  0.164645	  0.343004	
5.05613	  0.115272	  0.178835	  0.422509	
5.08939	  0.121061	  0.193100	  0.509436	
5.12266	  0.125501	  0.204938	  0.593451	
5.15592	  0.129434	  0.212575	  0.660829	
5.18918	  0.133095	  0.215534	  0.700869	
5.22245	  0.136439	  0.214526	  0.713092	
5.25571	  0.139840	  0.210592	  0.697511	
5.28898	  0.144176	  0.204687	  0.657799	
5.32224	  0.149623	  0.197472	  0.602378	
5.3555	  0.154562	  0.189636	  0.541745	
5.38877	  0.157145	  0.182062	  0.483118	
5.42203	  0.158434	  0.175850	  0.432303	
5.4553	  0.159618	  0.172118	  0.393663	
5.48856	  0.161617	  0.170888	  0.369445	
5.52182	  0.166321	  0.171646	  0.361130	
5.55509	  0.174384	  0.173949	  0.366721	
5.58835	  0.184155	  0.176591	  0.377930	
5.62162	  0.192761	  0.178077	  0.386404	
5.65488	  0.200857	  0.178623	  0.392185	
5.68814	  0.210328	  0.178151	  0.395280	
5.72141	  0.222885	  0.175323	  0.393141	
5.75467	  0.239195	  0.170086	  0.386962	
5.78794	  0.258230	  0.164340	  0.379412	
5.8212	  0.277642	  0.160205	  0.370762	
5.85446	  0.294980	  0.159049	  0.360691	
5.88773	  0.310524	  0.160962	  0.348860	
5.92099	  0.326008	  0.164797	  0.335155	
5.95426	  0.342814	  0.169231	  0.321678	
5.98752	  0.360626	  0.173115	  0.310777	
6.02078	  0.376600	  0.175198	  0.305171	
6.05405	  0.388940	  0.174261	  0.305916	
6.08731	  0.397690	  0.171348	  0.313362	
6.12058	  0.401187	  0.168128	  0.326029	
6.15384	  0.396570	  0.165436	  0.342250	
6.1871	  0.383356	  0.163742	  0.361064	
6.22037	  0.365247	  0.163345	  0.380181	
6.25363	  0.346597	  0.163978	  0.395614	
6.2869	  0.329437	  0.165010	  0.405615	
6.32016	  0.314489	  0.166089	  0.410962	
6.35342	  0.301352	  0.167213	  0.412990	
6.38669	  0.289941	  0.167953	  0.412682	
6.41995	  0.283884	  0.168663	  0.410141	
6.45322	  0.286379	  0.170227	  0.403424	
6.48648	  0.296313	  0.173019	  0.391635	
6.51974	  0.308958	  0.176898	  0.377525	
6.55301	  0.319079	  0.181238	  0.363855	
6.58627	  0.326144	  0.184957	  0.352220	
6.61954	  0.331982	  0.186816	  0.343786	
6.6528	  0.335589	  0.186852	  0.339713	
6.68606	  0.336029	  0.186493	  0.340311	
6.71933	  0.333021	  0.186931	  0.344153	
6.75259	  0.327227	  0.187974	  0.349088	
6.78586	  0.321693	  0.189255	  0.354534	
6.81912	  0.318329	  0.190260	  0.360480	
6.85238	  0.318651	  0.189780	  0.366527	
6.88565	  0.322826	  0.187224	  0.371318	
6.91891	  0.331418	  0.183750	  0.375583	
6.95218	  0.344407	  0.180736	  0.381212	
6.98544	  0.359347	  0.179026	  0.388565	
7.0187	  0.375015	  0.178847	  0.397927	
7.05197	  0.392143	  0.179651	  0.408850	
7.08523	  0.409140	  0.180917	  0.419881	
7.1185	  0.422018	  0.182278	  0.429719	
7.15176	  0.429567	  0.183691	  0.436925	
7.18502	  0.431563	  0.184906	  0.440383	
7.21829	  0.429116	  0.185530	  0.439478	
7.25155	  0.425122	  0.185393	  0.434089	
7.28482	  0.420610	  0.184771	  0.425602	
7.31808	  0.415944	  0.183779	  0.416081	
7.35134	  0.412312	  0.182270	  0.407313	
7.38461	  0.409275	  0.180299	  0.400578	
7.41787	  0.404123	  0.177952	  0.396936	
7.45114	  0.396411	  0.175628	  0.396615	
7.4844	  0.389323	  0.174290	  0.398576	
7.51766	  0.384441	  0.174361	  0.402190	
7.55093	  0.380461	  0.175726	  0.405176	
7.58419	  0.375872	  0.177799	  0.405939	
7.61746	  0.368901	  0.179466	  0.404884	
7.65072	  0.359839	  0.180581	  0.402668	
7.68398	  0.352980	  0.181078	  0.399939	
7.71725	  0.350217	  0.181032	  0.397455	
7.75051	  0.351552	  0.180698	  0.394826	
7.78378	  0.355135	  0.180078	  0.391454	
7.81704	  0.359598	  0.179538	  0.386145	
7.8503	  0.362833	  0.179701	  0.379270	
7.88357	  0.363716	  0.181135	  0.372874	
7.91683	  0.362883	  0.184112	  0.370186	
7.9501	  0.362862	  0.188002	  0.373022	
7.98336	  0.366253	  0.192066	  0.382166	
8.01662	  0.372949	  0.195877	  0.398181	
8.04989	  0.381334	  0.198659	  0.421123	
8.08315	  0.389453	  0.199887	  0.450181	
8.11642	  0.395705	  0.200355	  0.483909	
8.14968	  0.398262	  0.201205	  0.520657	
8.18294	  0.396475	  0.202776	  0.557322	
8.21621	  0.391986	  0.205285	  0.587622	
8.24947	  0.386998	  0.208635	  0.608974	
8.28274	  0.381838	  0.211611	  0.621970	
8.316	  0.376728	  0.213036	  0.624538	
8.34926	  0.373234	  0.212899	  0.617692	
8.38253	  0.371030	  0.211892	  0.604777	
8.41579	  0.369232	  0.210390	  0.589269	
8.44906	  0.367943	  0.208994	  0.573762	
8.48232	  0.365189	  0.208406	  0.560905	
8.51558	  0.360302	  0.208645	  0.552423	
8.54885	  0.355668	  0.209512	  0.548626	
8.58211	  0.353069	  0.210506	  0.548427	
8.61538	  0.351570	  0.211287	  0.551741	
8.64864	  0.351034	  0.212277	  0.558892	
8.6819	  0.351173	  0.213569	  0.568684	
8.71517	  0.352042	  0.215107	  0.578758	
8.74843	  0.353689	  0.217162	  0.588516	
8.7817	  0.357354	  0.220583	  0.596320	
8.81496	  0.361018	  0.225920	  0.601248	
8.84822	  0.361565	  0.232488	  0.604430	
8.88149	  0.358777	  0.238585	  0.606219	
8.91475	  0.354036	  0.242711	  0.606787	
8.94802	  0.347851	  0.244138	  0.607165	
8.98128	  0.340661	  0.242698	  0.607649	
9.01454	  0.334157	  0.238664	  0.608838	
9.04781	  0.330329	  0.233464	  0.609615	
9.08107	  0.330870	  0.228323	  0.609955	
9.11434	  0.335654	  0.223667	  0.607583	
9.1476	  0.343861	  0.219707	  0.601508	
9.18086	  0.356141	  0.216437	  0.592462	
9.21413	  0.372587	  0.213902	  0.582931	
9.24739	  0.390620	  0.212893	  0.575452	
9.28066	  0.406822	  0.213217	  0.571284	
9.31392	  0.417454	  0.214386	  0.570533	
9.34718	  0.421201	  0.216293	  0.570898	
9.38045	  0.419271	  0.217807	  0.573432	
9.41371	  0.415713	  0.217890	  0.578010	
9.44698	  0.412607	  0.216543	  0.584646	
9.48024	  0.408821	  0.215376	  0.594033	
9.5135	  0.403891	  0.215553	  0.602956	
9.54677	  0.397175	  0.217113	  0.608883	
9.58003	  0.388378	  0.219819	  0.612352	
9.6133	  0.380434	  0.223011	  0.615077	
9.64656	  0.375722	  0.225923	  0.616194	
9.67982	  0.375288	  0.229081	  0.615461	
9.71309	  0.376977	  0.233422	  0.615557	
9.74635	  0.376138	  0.239040	  0.618573	
9.77962	  0.372387	  0.246228	  0.624728	
9.81288	  0.369058	  0.254700	  0.632192	
9.84614	  0.368840	  0.263054	  0.636412	
9.87941	  0.369753	  0.269842	  0.637858	
9.91267	  0.367202	  0.274330	  0.640209	
9.94594	  0.363223	  0.278006	  0.644057	
9.9792	  0.363833	  0.282899	  0.649152	
10.0125	  0.370430	  0.289575	  0.658841	
10.0457	  0.379521	  0.297368	  0.675233	
10.079	  0.387670	  0.306454	  0.698514	
10.1123	  0.394906	  0.315820	  0.727707	
10.1455	  0.402351	  0.323992	  0.759675	
10.1788	  0.407543	  0.328186	  0.790695	
10.212	  0.409020	  0.326321	  0.814802	
10.2453	  0.407785	  0.318483	  0.825079	
10.2786	  0.404205	  0.306227	  0.815601	
10.3118	  0.400985	  0.292191	  0.784424	
10.3451	  0.400736	  0.277842	  0.734564	
10.3784	  0.402204	  0.264264	  0.674482	
10.4116	  0.401054	  0.250134	  0.611032	
10.4449	  0.393137	  0.234304	  0.548257	
10.4782	  0.378980	  0.216761	  0.491607	
10.5114	  0.362185	  0.199624	  0.443967	
10.5447	  0.346952	  0.184777	  0.405634	
10.578	  0.333658	  0.172795	  0.375519	
10.6112	  0.319234	  0.162978	  0.350889	
10.6445	  0.303322	  0.154396	  0.328575	
10.6777	  0.288499	  0.146940	  0.308805	
10.711	  0.276671	  0.141059	  0.293807	
10.7443	  0.266939	  0.136937	  0.283630	
10.7775	  0.258108	  0.134631	  0.277628	
10.8108	  0.250092	  0.133519	  0.273855	
10.8441	  0.244639	  0.132402	  0.267188	
10.8773	  0.244515	  0.130603	  0.254914	
10.9106	  0.251392	  0.128668	  0.239505	
10.9439	  0.264792	  0.127107	  0.222552	
10.9771	  0.282733	  0.126038	  0.204235	
11.0104	  0.303007	  0.125564	  0.185419	
11.0436	  0.325403	  0.125370	  0.167193	
11.0769	  0.349813	  0.124874	  0.150505	
11.1102	  0.374613	  0.123830	  0.136531	
11.1434	  0.396032	  0.122103	  0.125950	
11.1767	  0.410284	  0.119998	  0.117828	
11.21	  0.417505	  0.117698	  0.110495	
11.2432	  0.420259	  0.115516	  0.103152	
11.2765	  0.421680	  0.113882	  0.095581	
11.3098	  0.422684	  0.113022	  0.087767	
11.343	  0.421961	  0.113041	  0.080646	
11.3763	  0.415685	  0.113939	  0.074851	
11.4096	  0.404245	  0.115462	  0.070451	
11.4428	  0.389633	  0.117635	  0.067258	
11.4761	  0.372206	  0.119958	  0.064958	
11.5093	  0.353584	  0.121948	  0.063316	
11.5426	  0.336774	  0.123117	  0.062294	
11.5759	  0.323330	  0.123188	  0.062075	
11.6091	  0.313196	  0.122217	  0.062469	
11.6424	  0.305841	  0.120373	  0.062875	
11.6757	  0.300714	  0.117930	  0.062652	
11.7089	  0.297819	  0.114747	  0.061891	
11.7422	  0.297789	  0.111152	  0.061203	
11.7755	  0.301225	  0.107607	  0.060722	
11.8087	  0.309269	  0.104651	  0.060120	
11.842	  0.319945	  0.102495	  0.058992	
11.8752	  0.329168	  0.101347	  0.057197	
11.9085	  0.333675	  0.101442	  0.055257	
11.9418	  0.333201	  0.102186	  0.053669	
11.975	  0.328557	  0.102960	  0.052464	
12.0083	  0.320972	  0.103383	  0.051096	
12.0416	  0.311321	  0.103613	  0.048984	
12.0748	  0.299304	  0.104061	  0.046460	
12.1081	  0.286110	  0.104575	  0.044198	
12.1414	  0.273859	  0.104833	  0.042563	
12.1746	  0.262278	  0.104780	  0.041513	
12.2079	  0.251628	  0.104910	  0.040790	
